<?xml version="1.0" encoding="UTF-8" standalone="no"?>
<!-- Created with Inkscape (http://www.inkscape.org/) -->
<svg
   xmlns:svg="http://www.w3.org/2000/svg"
   xmlns="http://www.w3.org/2000/svg"
   version="1.0"
   width="106"
   height="30.000101"
   id="svg2">
  <defs
     id="defs4" />
  <g
     id="layer2">
    <path
       d="M 0,0.00010508948 L 105.99999,0.00010508948 L 105.99999,30.000101 L 0,30.000101 L 0,0.00010508948 z "
       style="fill:#203153;fill-opacity:1;fill-rule:evenodd;stroke:none;stroke-width:1px;stroke-linecap:butt;stroke-linejoin:miter;stroke-opacity:1"
       id="path2207" />
    <path
       d="M 8,0.00010508948 L 98,0.00010508948 L 98,30.000101 L 8,30.000101 L 8,0.00010508948 z "
       style="fill:#bb2c37;fill-opacity:1;fill-rule:evenodd;stroke:none;stroke-width:1px;stroke-linecap:butt;stroke-linejoin:miter;stroke-opacity:1"
       id="path2394" />
    <path
       d="M 19,0.00010508948 L 87,0.00010508948 L 87,30.000101 L 19,30.000101 L 19,0.00010508948 z "
       style="fill:#f0d855;fill-opacity:1;fill-rule:evenodd;stroke:none;stroke-width:1px;stroke-linecap:butt;stroke-linejoin:miter;stroke-opacity:1"
       id="path2396" />
    <path
       d="M 32,0.00010508948 L 74,0.00010508948 L 74,30.000101 L 32,30.000101 L 32,0.00010508948 z "
       style="fill:#0c615b;fill-opacity:1;fill-rule:evenodd;stroke:none;stroke-width:1px;stroke-linecap:butt;stroke-linejoin:miter;stroke-opacity:1"
       id="path2398" />
    <path
       d="M 39,0.00010508948 L 67,0.00010508948 L 67,30.000101 L 39,30.000101 L 39,0.00010508948 z "
       style="fill:#83c8c2;fill-opacity:1;fill-rule:evenodd;stroke:none;stroke-width:1px;stroke-linecap:butt;stroke-linejoin:miter;stroke-opacity:1"
       id="path2400" />
    <path
       d="M 48,0.00010508948 L 58,0.00010508948 L 58,30.000101 L 48,30.000101 L 48,0.00010508948 z "
       style="fill:#713430;fill-opacity:1;fill-rule:evenodd;stroke:none;stroke-width:1px;stroke-linecap:butt;stroke-linejoin:miter;stroke-opacity:1"
       id="path2402" />
    <path
       d="M 52,0.00010508948 L 54,0.00010508948 L 54,30.000101 L 52,30.000101 L 52,0.00010508948 z "
       style="fill:#fbcda1;fill-opacity:1;fill-rule:evenodd;stroke:none;stroke-width:1px;stroke-linecap:butt;stroke-linejoin:miter;stroke-opacity:1"
       id="path2404" />
  </g>
  <g
     id="layer1">
    <g
       id="g2179">
      <g
         transform="translate(0,1.0108948e-4)"
         id="g2329">
        <path
           d="M 0,29 L 106,29 L 106,30 L 0,30 L 0,29 z "
           style="opacity:0.25;fill:#000000;fill-opacity:1;fill-rule:evenodd;stroke:none;stroke-width:1px;stroke-linecap:butt;stroke-linejoin:miter;stroke-opacity:1"
           id="path3508" />
        <path
           d="M 0,27 L 106,27 L 106,28 L 0,28 L 0,27 z "
           style="opacity:0.25;fill:#000000;fill-opacity:1;fill-rule:evenodd;stroke:none;stroke-width:1px;stroke-linecap:butt;stroke-linejoin:miter;stroke-opacity:1"
           id="path3510" />
        <path
           d="M 0,25 L 106,25 L 106,26 L 0,26 L 0,25 z "
           style="opacity:0.25;fill:#000000;fill-opacity:1;fill-rule:evenodd;stroke:none;stroke-width:1px;stroke-linecap:butt;stroke-linejoin:miter;stroke-opacity:1"
           id="path3512" />
        <path
           d="M 0,23 L 106,23 L 106,24 L 0,24 L 0,23 z "
           style="opacity:0.25;fill:#000000;fill-opacity:1;fill-rule:evenodd;stroke:none;stroke-width:1px;stroke-linecap:butt;stroke-linejoin:miter;stroke-opacity:1"
           id="path3514" />
        <path
           d="M 0,21 L 106,21 L 106,22 L 0,22 L 0,21 z "
           style="opacity:0.25;fill:#000000;fill-opacity:1;fill-rule:evenodd;stroke:none;stroke-width:1px;stroke-linecap:butt;stroke-linejoin:miter;stroke-opacity:1"
           id="path3516" />
        <path
           d="M 0,19 L 106,19 L 106,20 L 0,20 L 0,19 z "
           style="opacity:0.25;fill:#000000;fill-opacity:1;fill-rule:evenodd;stroke:none;stroke-width:1px;stroke-linecap:butt;stroke-linejoin:miter;stroke-opacity:1"
           id="path3518" />
        <path
           d="M 0,17 L 106,17 L 106,18 L 0,18 L 0,17 z "
           style="opacity:0.25;fill:#000000;fill-opacity:1;fill-rule:evenodd;stroke:none;stroke-width:1px;stroke-linecap:butt;stroke-linejoin:miter;stroke-opacity:1"
           id="path3520" />
        <path
           d="M 0,15 L 106,15 L 106,16 L 0,16 L 0,15 z "
           style="opacity:0.25;fill:#000000;fill-opacity:1;fill-rule:evenodd;stroke:none;stroke-width:1px;stroke-linecap:butt;stroke-linejoin:miter;stroke-opacity:1"
           id="path3522" />
        <path
           d="M 0,13 L 106,13 L 106,14 L 0,14 L 0,13 z "
           style="opacity:0.25;fill:#000000;fill-opacity:1;fill-rule:evenodd;stroke:none;stroke-width:1px;stroke-linecap:butt;stroke-linejoin:miter;stroke-opacity:1"
           id="path3524" />
        <path
           d="M 0,11 L 106,11 L 106,12 L 0,12 L 0,11 z "
           style="opacity:0.25;fill:#000000;fill-opacity:1;fill-rule:evenodd;stroke:none;stroke-width:1px;stroke-linecap:butt;stroke-linejoin:miter;stroke-opacity:1"
           id="path3526" />
        <path
           d="M 0,9 L 106,9 L 106,10 L 0,10 L 0,9 z "
           style="opacity:0.25;fill:#000000;fill-opacity:1;fill-rule:evenodd;stroke:none;stroke-width:1px;stroke-linecap:butt;stroke-linejoin:miter;stroke-opacity:1"
           id="path3528" />
        <path
           d="M 0,7 L 106,7 L 106,8 L 0,8 L 0,7 z "
           style="opacity:0.25;fill:#000000;fill-opacity:1;fill-rule:evenodd;stroke:none;stroke-width:1px;stroke-linecap:butt;stroke-linejoin:miter;stroke-opacity:1"
           id="path3530" />
        <path
           d="M 0,5 L 106,5 L 106,6 L 0,6 L 0,5 z "
           style="opacity:0.25;fill:#000000;fill-opacity:1;fill-rule:evenodd;stroke:none;stroke-width:1px;stroke-linecap:butt;stroke-linejoin:miter;stroke-opacity:1"
           id="path3532" />
        <path
           d="M 0,3 L 106,3 L 106,4 L 0,4 L 0,3 z "
           style="opacity:0.25;fill:#000000;fill-opacity:1;fill-rule:evenodd;stroke:none;stroke-width:1px;stroke-linecap:butt;stroke-linejoin:miter;stroke-opacity:1"
           id="path3534" />
        <path
           d="M 0,1 L 106,1 L 106,2 L 0,2 L 0,1 z "
           style="opacity:0.25;fill:#000000;fill-opacity:1;fill-rule:evenodd;stroke:none;stroke-width:1px;stroke-linecap:butt;stroke-linejoin:miter;stroke-opacity:1"
           id="path3536" />
      </g>
    </g>
  </g>
</svg>
