<?xml version="1.0" encoding="UTF-8" standalone="no"?>
<!-- Created with Inkscape (http://www.inkscape.org/) -->
<svg
   xmlns:dc="http://purl.org/dc/elements/1.1/"
   xmlns:cc="http://web.resource.org/cc/"
   xmlns:rdf="http://www.w3.org/1999/02/22-rdf-syntax-ns#"
   xmlns:svg="http://www.w3.org/2000/svg"
   xmlns="http://www.w3.org/2000/svg"
   xmlns:sodipodi="http://sodipodi.sourceforge.net/DTD/sodipodi-0.dtd"
   xmlns:inkscape="http://www.inkscape.org/namespaces/inkscape"
   version="1.0"
   width="106"
   height="30.000128"
   id="svg2"
   sodipodi:version="0.32"
   inkscape:version="0.45.1"
   sodipodi:docname="Global_War_on_Terrorism_Service_ribbon.svg"
   inkscape:output_extension="org.inkscape.output.svg.inkscape"
   sodipodi:docbase="C:\My Pictures\svg">
  <metadata
     id="metadata125">
    <rdf:RDF>
      <cc:Work
         rdf:about="">
        <dc:format>image/svg+xml</dc:format>
        <dc:type
           rdf:resource="http://purl.org/dc/dcmitype/StillImage" />
      </cc:Work>
    </rdf:RDF>
  </metadata>
  <sodipodi:namedview
     inkscape:window-height="682"
     inkscape:window-width="1024"
     inkscape:pageshadow="2"
     inkscape:pageopacity="0.0"
     guidetolerance="10.0"
     gridtolerance="10.0"
     objecttolerance="10.0"
     borderopacity="1.0"
     bordercolor="#666666"
     pagecolor="#ffffff"
     id="base"
     inkscape:zoom="1.0990174"
     inkscape:cx="25.775728"
     inkscape:cy="149.27719"
     inkscape:window-x="-4"
     inkscape:window-y="28"
     inkscape:current-layer="svg2" />
  <defs
     id="defs4" />
  <path
     d="M 0,-7.1054274e-015 L 105.99999,-7.1054274e-015 L 105.99999,29.999996 L 0,29.999996 L 0,-7.1054274e-015 z "
     style="fill:#000089;fill-opacity:1;fill-rule:evenodd;stroke:none;stroke-width:1px;stroke-linecap:butt;stroke-linejoin:miter;stroke-opacity:1"
     id="path2178" />
  <g
     transform="matrix(3.8495723,0,0,22.669721,226.69721,-23826.758)"
     style="fill:#a67300;fill-opacity:1"
     id="g2828" />
  <path
     d="M 12,-7.1054274e-015 L 25.624999,-7.1054274e-015 L 25.624999,29.999996 L 12,29.999996 L 12,-7.1054274e-015 z "
     style="fill:#f0e131;fill-opacity:1;fill-rule:evenodd;stroke:none;stroke-width:1px;stroke-linecap:butt;stroke-linejoin:miter;stroke-opacity:1"
     id="path3193" />
  <path
     d="M 80.433397,-7.1054274e-015 L 94.000001,-7.1054274e-015 L 94.000001,29.999996 L 80.433397,29.999996 L 80.433397,-7.1054274e-015 z "
     style="fill:#f0e131;fill-opacity:1;fill-rule:evenodd;stroke:none;stroke-width:1px;stroke-linecap:butt;stroke-linejoin:miter;stroke-opacity:1"
     id="path3231" />
  <path
     d="M 21,-7.1054274e-015 L 30,-7.1054274e-015 L 30,29.999996 L 21,29.999996 L 21,-7.1054274e-015 z "
     style="fill:#e60c31;fill-opacity:1;fill-rule:evenodd;stroke:none;stroke-width:1px;stroke-linecap:butt;stroke-linejoin:miter;stroke-opacity:1"
     id="path3265" />
  <path
     d="M 76,-7.1054274e-015 L 85,-7.1054274e-015 L 85,29.999996 L 76,29.999996 L 76,-7.1054274e-015 z "
     style="fill:#e60c31;fill-opacity:1;fill-rule:evenodd;stroke:none;stroke-width:1px;stroke-linecap:butt;stroke-linejoin:miter;stroke-opacity:1"
     id="path3299" />
  <path
     d="M 35.001786,-7.1054274e-015 L 40.000001,-7.1054274e-015 L 40.000001,29.999996 L 35.001786,29.999996 L 35.001786,-7.1054274e-015 z "
     style="fill:#ffffff;fill-opacity:1;fill-rule:evenodd;stroke:none;stroke-width:1px;stroke-linecap:butt;stroke-linejoin:miter;stroke-opacity:1"
     id="path3333" />
  <path
     d="M 65.999999,-7.1054274e-015 L 71.000001,-7.1054274e-015 L 71.000001,29.999996 L 65.999999,29.999996 L 65.999999,-7.1054274e-015 z "
     style="fill:#ffffff;fill-opacity:1;fill-rule:evenodd;stroke:none;stroke-width:1px;stroke-linecap:butt;stroke-linejoin:miter;stroke-opacity:1"
     id="path3367" />
  <g
     id="g2310"
     style="fill:#a67300;fill-opacity:1"
     transform="matrix(3.8495723,0,0,22.669721,226.69721,-23786.758)" />
  <g
     id="g2536"
     transform="translate(0,1.2779236e-4)">
    <path
       id="path3508"
       style="opacity:0.25;fill:#000000;fill-opacity:1;fill-rule:evenodd;stroke:none;stroke-width:1px;stroke-linecap:butt;stroke-linejoin:miter;stroke-opacity:1"
       d="M 0,29 L 106,29 L 106,30 L 0,30 L 0,29 z " />
    <path
       id="path3510"
       style="opacity:0.25;fill:#000000;fill-opacity:1;fill-rule:evenodd;stroke:none;stroke-width:1px;stroke-linecap:butt;stroke-linejoin:miter;stroke-opacity:1"
       d="M 0,27 L 106,27 L 106,28 L 0,28 L 0,27 z " />
    <path
       id="path3512"
       style="opacity:0.25;fill:#000000;fill-opacity:1;fill-rule:evenodd;stroke:none;stroke-width:1px;stroke-linecap:butt;stroke-linejoin:miter;stroke-opacity:1"
       d="M 0,25 L 106,25 L 106,26 L 0,26 L 0,25 z " />
    <path
       id="path3514"
       style="opacity:0.25;fill:#000000;fill-opacity:1;fill-rule:evenodd;stroke:none;stroke-width:1px;stroke-linecap:butt;stroke-linejoin:miter;stroke-opacity:1"
       d="M 0,23 L 106,23 L 106,24 L 0,24 L 0,23 z " />
    <path
       id="path3516"
       style="opacity:0.25;fill:#000000;fill-opacity:1;fill-rule:evenodd;stroke:none;stroke-width:1px;stroke-linecap:butt;stroke-linejoin:miter;stroke-opacity:1"
       d="M 0,21 L 106,21 L 106,22 L 0,22 L 0,21 z " />
    <path
       id="path3518"
       style="opacity:0.25;fill:#000000;fill-opacity:1;fill-rule:evenodd;stroke:none;stroke-width:1px;stroke-linecap:butt;stroke-linejoin:miter;stroke-opacity:1"
       d="M 0,19 L 106,19 L 106,20 L 0,20 L 0,19 z " />
    <path
       id="path3520"
       style="opacity:0.25;fill:#000000;fill-opacity:1;fill-rule:evenodd;stroke:none;stroke-width:1px;stroke-linecap:butt;stroke-linejoin:miter;stroke-opacity:1"
       d="M 0,17 L 106,17 L 106,18 L 0,18 L 0,17 z " />
    <path
       id="path3522"
       style="opacity:0.25;fill:#000000;fill-opacity:1;fill-rule:evenodd;stroke:none;stroke-width:1px;stroke-linecap:butt;stroke-linejoin:miter;stroke-opacity:1"
       d="M 0,15 L 106,15 L 106,16 L 0,16 L 0,15 z " />
    <path
       id="path3524"
       style="opacity:0.25;fill:#000000;fill-opacity:1;fill-rule:evenodd;stroke:none;stroke-width:1px;stroke-linecap:butt;stroke-linejoin:miter;stroke-opacity:1"
       d="M 0,13 L 106,13 L 106,14 L 0,14 L 0,13 z " />
    <path
       id="path3526"
       style="opacity:0.25;fill:#000000;fill-opacity:1;fill-rule:evenodd;stroke:none;stroke-width:1px;stroke-linecap:butt;stroke-linejoin:miter;stroke-opacity:1"
       d="M 0,11 L 106,11 L 106,12 L 0,12 L 0,11 z " />
    <path
       id="path3528"
       style="opacity:0.25;fill:#000000;fill-opacity:1;fill-rule:evenodd;stroke:none;stroke-width:1px;stroke-linecap:butt;stroke-linejoin:miter;stroke-opacity:1"
       d="M 0,9 L 106,9 L 106,10 L 0,10 L 0,9 z " />
    <path
       id="path3530"
       style="opacity:0.25;fill:#000000;fill-opacity:1;fill-rule:evenodd;stroke:none;stroke-width:1px;stroke-linecap:butt;stroke-linejoin:miter;stroke-opacity:1"
       d="M 0,7 L 106,7 L 106,8 L 0,8 L 0,7 z " />
    <path
       id="path3532"
       style="opacity:0.25;fill:#000000;fill-opacity:1;fill-rule:evenodd;stroke:none;stroke-width:1px;stroke-linecap:butt;stroke-linejoin:miter;stroke-opacity:1"
       d="M 0,5 L 106,5 L 106,6 L 0,6 L 0,5 z " />
    <path
       id="path3534"
       style="opacity:0.25;fill:#000000;fill-opacity:1;fill-rule:evenodd;stroke:none;stroke-width:1px;stroke-linecap:butt;stroke-linejoin:miter;stroke-opacity:1"
       d="M 0,3 L 106,3 L 106,4 L 0,4 L 0,3 z " />
    <path
       id="path3536"
       style="opacity:0.25;fill:#000000;fill-opacity:1;fill-rule:evenodd;stroke:none;stroke-width:1px;stroke-linecap:butt;stroke-linejoin:miter;stroke-opacity:1"
       d="M 0,1 L 106,1 L 106,2 L 0,2 L 0,1 z " />
  </g>
</svg>
