<?xml version="1.0" encoding="UTF-8" standalone="no"?>
<!-- Created with Inkscape (http://www.inkscape.org/) -->
<svg
   xmlns:dc="http://purl.org/dc/elements/1.1/"
   xmlns:cc="http://web.resource.org/cc/"
   xmlns:rdf="http://www.w3.org/1999/02/22-rdf-syntax-ns#"
   xmlns:svg="http://www.w3.org/2000/svg"
   xmlns="http://www.w3.org/2000/svg"
   xmlns:sodipodi="http://sodipodi.sourceforge.net/DTD/sodipodi-0.dtd"
   xmlns:inkscape="http://www.inkscape.org/namespaces/inkscape"
   version="1.0"
   width="106"
   height="30.00009"
   id="svg2"
   sodipodi:version="0.32"
   inkscape:version="0.45.1"
   sodipodi:docname="Joint_Service_Commendation_ribbon.svg"
   inkscape:output_extension="org.inkscape.output.svg.inkscape"
   sodipodi:docbase="C:\My Pictures\svg">
  <metadata
     id="metadata90">
    <rdf:RDF>
      <cc:Work
         rdf:about="">
        <dc:format>image/svg+xml</dc:format>
        <dc:type
           rdf:resource="http://purl.org/dc/dcmitype/StillImage" />
      </cc:Work>
    </rdf:RDF>
  </metadata>
  <sodipodi:namedview
     inkscape:window-height="712"
     inkscape:window-width="1024"
     inkscape:pageshadow="2"
     inkscape:pageopacity="0.0"
     guidetolerance="10.0"
     gridtolerance="10.0"
     objecttolerance="10.0"
     borderopacity="1.0"
     bordercolor="#666666"
     pagecolor="#ffffff"
     id="base"
     inkscape:zoom="4.5333334"
     inkscape:cx="18.829012"
     inkscape:cy="30.972767"
     inkscape:window-x="0"
     inkscape:window-y="54"
     inkscape:current-layer="svg2" />
  <defs
     id="defs4" />
  <path
     id="path2278"
     style="fill:#4477dd;fill-opacity:1;fill-rule:evenodd;stroke:none;stroke-width:1px;stroke-linecap:butt;stroke-linejoin:miter;stroke-opacity:1"
     d="M 0,-1.0354614e-005 L 105.99999,-1.0354614e-005 L 105.99999,29.999986 L 0,29.999986 L 0,-1.0354614e-005 z " />
  <path
     id="path2312"
     style="fill:#ffffff;fill-opacity:1;fill-rule:evenodd;stroke:none;stroke-width:1px;stroke-linecap:butt;stroke-linejoin:miter;stroke-opacity:1"
     d="M 20,-1.0354614e-005 L 85.99999,-1.0354614e-005 L 85.99999,29.999986 L 20,29.999986 L 20,-1.0354614e-005 z " />
  <path
     id="path2346"
     style="fill:#17692b;fill-opacity:1;fill-rule:evenodd;stroke:none;stroke-width:1px;stroke-linecap:butt;stroke-linejoin:miter;stroke-opacity:1"
     d="M 44.999999,-1.0354614e-005 L 61,-1.0354614e-005 L 61,29.999986 L 44.999999,29.999986 L 44.999999,-1.0354614e-005 z " />
  <path
     id="path2380"
     style="fill:#17692b;fill-opacity:1;fill-rule:evenodd;stroke:none;stroke-width:1px;stroke-linecap:butt;stroke-linejoin:miter;stroke-opacity:1"
     d="M 70,-1.0354614e-005 L 77,-1.0354614e-005 L 77,29.999986 L 70,29.999986 L 70,-1.0354614e-005 z " />
  <path
     id="path2414"
     style="fill:#17692b;fill-opacity:1;fill-rule:evenodd;stroke:none;stroke-width:1px;stroke-linecap:butt;stroke-linejoin:miter;stroke-opacity:1"
     d="M 29,-1.0354614e-005 L 35.999999,-1.0354614e-005 L 35.999999,29.999986 L 29,29.999986 L 29,-1.0354614e-005 z " />
  <g
     id="g2261"
     transform="translate(0,8.9645386e-5)">
    <path
       id="path3508"
       style="opacity:0.25;fill:#000000;fill-opacity:1;fill-rule:evenodd;stroke:none;stroke-width:1px;stroke-linecap:butt;stroke-linejoin:miter;stroke-opacity:1"
       d="M 0,29 L 106,29 L 106,30 L 0,30 L 0,29 z " />
    <path
       id="path3510"
       style="opacity:0.25;fill:#000000;fill-opacity:1;fill-rule:evenodd;stroke:none;stroke-width:1px;stroke-linecap:butt;stroke-linejoin:miter;stroke-opacity:1"
       d="M 0,27 L 106,27 L 106,28 L 0,28 L 0,27 z " />
    <path
       id="path3512"
       style="opacity:0.25;fill:#000000;fill-opacity:1;fill-rule:evenodd;stroke:none;stroke-width:1px;stroke-linecap:butt;stroke-linejoin:miter;stroke-opacity:1"
       d="M 0,25 L 106,25 L 106,26 L 0,26 L 0,25 z " />
    <path
       id="path3514"
       style="opacity:0.25;fill:#000000;fill-opacity:1;fill-rule:evenodd;stroke:none;stroke-width:1px;stroke-linecap:butt;stroke-linejoin:miter;stroke-opacity:1"
       d="M 0,23 L 106,23 L 106,24 L 0,24 L 0,23 z " />
    <path
       id="path3516"
       style="opacity:0.25;fill:#000000;fill-opacity:1;fill-rule:evenodd;stroke:none;stroke-width:1px;stroke-linecap:butt;stroke-linejoin:miter;stroke-opacity:1"
       d="M 0,21 L 106,21 L 106,22 L 0,22 L 0,21 z " />
    <path
       id="path3518"
       style="opacity:0.25;fill:#000000;fill-opacity:1;fill-rule:evenodd;stroke:none;stroke-width:1px;stroke-linecap:butt;stroke-linejoin:miter;stroke-opacity:1"
       d="M 0,19 L 106,19 L 106,20 L 0,20 L 0,19 z " />
    <path
       id="path3520"
       style="opacity:0.25;fill:#000000;fill-opacity:1;fill-rule:evenodd;stroke:none;stroke-width:1px;stroke-linecap:butt;stroke-linejoin:miter;stroke-opacity:1"
       d="M 0,17 L 106,17 L 106,18 L 0,18 L 0,17 z " />
    <path
       id="path3522"
       style="opacity:0.25;fill:#000000;fill-opacity:1;fill-rule:evenodd;stroke:none;stroke-width:1px;stroke-linecap:butt;stroke-linejoin:miter;stroke-opacity:1"
       d="M 0,15 L 106,15 L 106,16 L 0,16 L 0,15 z " />
    <path
       id="path3524"
       style="opacity:0.25;fill:#000000;fill-opacity:1;fill-rule:evenodd;stroke:none;stroke-width:1px;stroke-linecap:butt;stroke-linejoin:miter;stroke-opacity:1"
       d="M 0,13 L 106,13 L 106,14 L 0,14 L 0,13 z " />
    <path
       id="path3526"
       style="opacity:0.25;fill:#000000;fill-opacity:1;fill-rule:evenodd;stroke:none;stroke-width:1px;stroke-linecap:butt;stroke-linejoin:miter;stroke-opacity:1"
       d="M 0,11 L 106,11 L 106,12 L 0,12 L 0,11 z " />
    <path
       id="path3528"
       style="opacity:0.25;fill:#000000;fill-opacity:1;fill-rule:evenodd;stroke:none;stroke-width:1px;stroke-linecap:butt;stroke-linejoin:miter;stroke-opacity:1"
       d="M 0,9 L 106,9 L 106,10 L 0,10 L 0,9 z " />
    <path
       id="path3530"
       style="opacity:0.25;fill:#000000;fill-opacity:1;fill-rule:evenodd;stroke:none;stroke-width:1px;stroke-linecap:butt;stroke-linejoin:miter;stroke-opacity:1"
       d="M 0,7 L 106,7 L 106,8 L 0,8 L 0,7 z " />
    <path
       id="path3532"
       style="opacity:0.25;fill:#000000;fill-opacity:1;fill-rule:evenodd;stroke:none;stroke-width:1px;stroke-linecap:butt;stroke-linejoin:miter;stroke-opacity:1"
       d="M 0,5 L 106,5 L 106,6 L 0,6 L 0,5 z " />
    <path
       id="path3534"
       style="opacity:0.25;fill:#000000;fill-opacity:1;fill-rule:evenodd;stroke:none;stroke-width:1px;stroke-linecap:butt;stroke-linejoin:miter;stroke-opacity:1"
       d="M 0,3 L 106,3 L 106,4 L 0,4 L 0,3 z " />
    <path
       id="path3536"
       style="opacity:0.25;fill:#000000;fill-opacity:1;fill-rule:evenodd;stroke:none;stroke-width:1px;stroke-linecap:butt;stroke-linejoin:miter;stroke-opacity:1"
       d="M 0,1 L 106,1 L 106,2 L 0,2 L 0,1 z " />
  </g>
</svg>
