<?xml version="1.0" encoding="UTF-8" standalone="no"?>
<!-- Created with Inkscape (http://www.inkscape.org/) -->
<svg
   xmlns:dc="http://purl.org/dc/elements/1.1/"
   xmlns:cc="http://web.resource.org/cc/"
   xmlns:rdf="http://www.w3.org/1999/02/22-rdf-syntax-ns#"
   xmlns:svg="http://www.w3.org/2000/svg"
   xmlns="http://www.w3.org/2000/svg"
   xmlns:sodipodi="http://sodipodi.sourceforge.net/DTD/sodipodi-0.dtd"
   xmlns:inkscape="http://www.inkscape.org/namespaces/inkscape"
   version="1.0"
   width="106"
   height="30.00012"
   id="svg2"
   sodipodi:version="0.32"
   inkscape:version="0.45.1"
   sodipodi:docname="Korea_Defense_Service_ribbon.svg"
   inkscape:output_extension="org.inkscape.output.svg.inkscape"
   sodipodi:docbase="C:\My Pictures\svg">
  <metadata
     id="metadata108">
    <rdf:RDF>
      <cc:Work
         rdf:about="">
        <dc:format>image/svg+xml</dc:format>
        <dc:type
           rdf:resource="http://purl.org/dc/dcmitype/StillImage" />
      </cc:Work>
    </rdf:RDF>
  </metadata>
  <sodipodi:namedview
     inkscape:window-height="682"
     inkscape:window-width="1024"
     inkscape:pageshadow="2"
     inkscape:pageopacity="0.0"
     guidetolerance="10.0"
     gridtolerance="10.0"
     objecttolerance="10.0"
     borderopacity="1.0"
     bordercolor="#666666"
     pagecolor="#ffffff"
     id="base"
     inkscape:zoom="6.2169812"
     inkscape:cx="56.632861"
     inkscape:cy="9.6301912"
     inkscape:window-x="-4"
     inkscape:window-y="28"
     inkscape:current-layer="svg2" />
  <defs
     id="defs4" />
  <path
     d="M 0,7.1054274e-015 L 105.99999,7.1054274e-015 L 105.99999,29.999996 L 0,29.999996 L 0,7.1054274e-015 z "
     style="fill:#216a43;fill-opacity:1;fill-rule:evenodd;stroke:none;stroke-width:1px;stroke-linecap:butt;stroke-linejoin:miter;stroke-opacity:1"
     id="path2178" />
  <g
     transform="matrix(0.4805977,0,0,2.8301887,28.301887,-2948.3835)"
     style="fill:#a67300;fill-opacity:1"
     id="g2828" />
  <path
     d="M 18.25,7.1054274e-015 L 24.249999,7.1054274e-015 L 24.249999,29.999996 L 18.25,29.999996 L 18.25,7.1054274e-015 z "
     style="fill:#ffffff;fill-opacity:1;fill-rule:evenodd;stroke:none;stroke-width:1px;stroke-linecap:butt;stroke-linejoin:miter;stroke-opacity:1"
     id="path2369" />
  <path
     d="M 31.25,7.1054274e-015 L 36.32761,7.1054274e-015 L 36.32761,29.999996 L 31.25,29.999996 L 31.25,7.1054274e-015 z "
     style="fill:#edd91e;fill-opacity:1;fill-rule:evenodd;stroke:none;stroke-width:1px;stroke-linecap:butt;stroke-linejoin:miter;stroke-opacity:1"
     id="path2403" />
  <path
     d="M 43.402343,7.1054274e-015 L 62.589996,7.1054274e-015 L 62.589996,29.999996 L 43.402343,29.999996 L 43.402343,7.1054274e-015 z "
     style="fill:#000099;fill-opacity:1;fill-rule:evenodd;stroke:none;stroke-width:1px;stroke-linecap:butt;stroke-linejoin:miter;stroke-opacity:1"
     id="path2437" />
  <path
     d="M 69.672114,7.1054274e-015 L 74.699196,7.1054274e-015 L 74.699196,29.999996 L 69.672114,29.999996 L 69.672114,7.1054274e-015 z "
     style="fill:#edd91e;fill-opacity:1;fill-rule:evenodd;stroke:none;stroke-width:1px;stroke-linecap:butt;stroke-linejoin:miter;stroke-opacity:1"
     id="path2471" />
  <path
     d="M 81.75922,7.1054274e-015 L 87.824868,7.1054274e-015 L 87.824868,29.999996 L 81.75922,29.999996 L 81.75922,7.1054274e-015 z "
     style="fill:#ffffff;fill-opacity:1;fill-rule:evenodd;stroke:none;stroke-width:1px;stroke-linecap:butt;stroke-linejoin:miter;stroke-opacity:1"
     id="path2505" />
  <g
     id="g2293"
     style="fill:#a67300;fill-opacity:1"
     transform="matrix(0.4805977,0,0,2.8301887,28.301887,-2908.3835)" />
  <g
     id="g2486"
     transform="translate(0,1.2016296e-4)">
    <path
       id="path3508"
       style="opacity:0.25;fill:#000000;fill-opacity:1;fill-rule:evenodd;stroke:none;stroke-width:1px;stroke-linecap:butt;stroke-linejoin:miter;stroke-opacity:1"
       d="M 0,29 L 106,29 L 106,30 L 0,30 L 0,29 z " />
    <path
       id="path3510"
       style="opacity:0.25;fill:#000000;fill-opacity:1;fill-rule:evenodd;stroke:none;stroke-width:1px;stroke-linecap:butt;stroke-linejoin:miter;stroke-opacity:1"
       d="M 0,27 L 106,27 L 106,28 L 0,28 L 0,27 z " />
    <path
       id="path3512"
       style="opacity:0.25;fill:#000000;fill-opacity:1;fill-rule:evenodd;stroke:none;stroke-width:1px;stroke-linecap:butt;stroke-linejoin:miter;stroke-opacity:1"
       d="M 0,25 L 106,25 L 106,26 L 0,26 L 0,25 z " />
    <path
       id="path3514"
       style="opacity:0.25;fill:#000000;fill-opacity:1;fill-rule:evenodd;stroke:none;stroke-width:1px;stroke-linecap:butt;stroke-linejoin:miter;stroke-opacity:1"
       d="M 0,23 L 106,23 L 106,24 L 0,24 L 0,23 z " />
    <path
       id="path3516"
       style="opacity:0.25;fill:#000000;fill-opacity:1;fill-rule:evenodd;stroke:none;stroke-width:1px;stroke-linecap:butt;stroke-linejoin:miter;stroke-opacity:1"
       d="M 0,21 L 106,21 L 106,22 L 0,22 L 0,21 z " />
    <path
       id="path3518"
       style="opacity:0.25;fill:#000000;fill-opacity:1;fill-rule:evenodd;stroke:none;stroke-width:1px;stroke-linecap:butt;stroke-linejoin:miter;stroke-opacity:1"
       d="M 0,19 L 106,19 L 106,20 L 0,20 L 0,19 z " />
    <path
       id="path3520"
       style="opacity:0.25;fill:#000000;fill-opacity:1;fill-rule:evenodd;stroke:none;stroke-width:1px;stroke-linecap:butt;stroke-linejoin:miter;stroke-opacity:1"
       d="M 0,17 L 106,17 L 106,18 L 0,18 L 0,17 z " />
    <path
       id="path3522"
       style="opacity:0.25;fill:#000000;fill-opacity:1;fill-rule:evenodd;stroke:none;stroke-width:1px;stroke-linecap:butt;stroke-linejoin:miter;stroke-opacity:1"
       d="M 0,15 L 106,15 L 106,16 L 0,16 L 0,15 z " />
    <path
       id="path3524"
       style="opacity:0.25;fill:#000000;fill-opacity:1;fill-rule:evenodd;stroke:none;stroke-width:1px;stroke-linecap:butt;stroke-linejoin:miter;stroke-opacity:1"
       d="M 0,13 L 106,13 L 106,14 L 0,14 L 0,13 z " />
    <path
       id="path3526"
       style="opacity:0.25;fill:#000000;fill-opacity:1;fill-rule:evenodd;stroke:none;stroke-width:1px;stroke-linecap:butt;stroke-linejoin:miter;stroke-opacity:1"
       d="M 0,11 L 106,11 L 106,12 L 0,12 L 0,11 z " />
    <path
       id="path3528"
       style="opacity:0.25;fill:#000000;fill-opacity:1;fill-rule:evenodd;stroke:none;stroke-width:1px;stroke-linecap:butt;stroke-linejoin:miter;stroke-opacity:1"
       d="M 0,9 L 106,9 L 106,10 L 0,10 L 0,9 z " />
    <path
       id="path3530"
       style="opacity:0.25;fill:#000000;fill-opacity:1;fill-rule:evenodd;stroke:none;stroke-width:1px;stroke-linecap:butt;stroke-linejoin:miter;stroke-opacity:1"
       d="M 0,7 L 106,7 L 106,8 L 0,8 L 0,7 z " />
    <path
       id="path3532"
       style="opacity:0.25;fill:#000000;fill-opacity:1;fill-rule:evenodd;stroke:none;stroke-width:1px;stroke-linecap:butt;stroke-linejoin:miter;stroke-opacity:1"
       d="M 0,5 L 106,5 L 106,6 L 0,6 L 0,5 z " />
    <path
       id="path3534"
       style="opacity:0.25;fill:#000000;fill-opacity:1;fill-rule:evenodd;stroke:none;stroke-width:1px;stroke-linecap:butt;stroke-linejoin:miter;stroke-opacity:1"
       d="M 0,3 L 106,3 L 106,4 L 0,4 L 0,3 z " />
    <path
       id="path3536"
       style="opacity:0.25;fill:#000000;fill-opacity:1;fill-rule:evenodd;stroke:none;stroke-width:1px;stroke-linecap:butt;stroke-linejoin:miter;stroke-opacity:1"
       d="M 0,1 L 106,1 L 106,2 L 0,2 L 0,1 z " />
  </g>
</svg>
