<?xml version="1.0" encoding="UTF-8" standalone="no"?>
<!-- Created with Inkscape (http://www.inkscape.org/) -->
<svg
   xmlns:dc="http://purl.org/dc/elements/1.1/"
   xmlns:cc="http://web.resource.org/cc/"
   xmlns:rdf="http://www.w3.org/1999/02/22-rdf-syntax-ns#"
   xmlns:svg="http://www.w3.org/2000/svg"
   xmlns="http://www.w3.org/2000/svg"
   xmlns:sodipodi="http://sodipodi.sourceforge.net/DTD/sodipodi-0.dtd"
   xmlns:inkscape="http://www.inkscape.org/namespaces/inkscape"
   version="1.0"
   width="106"
   height="30.000086"
   id="svg2"
   sodipodi:version="0.32"
   inkscape:version="0.45.1"
   sodipodi:docname="US_Defense_Superior_Service_Medal_ribbon.svg"
   inkscape:output_extension="org.inkscape.output.svg.inkscape"
   sodipodi:docbase="C:\My Pictures\svg">
  <metadata
     id="metadata73">
    <rdf:RDF>
      <cc:Work
         rdf:about="">
        <dc:format>image/svg+xml</dc:format>
        <dc:type
           rdf:resource="http://purl.org/dc/dcmitype/StillImage" />
      </cc:Work>
    </rdf:RDF>
  </metadata>
  <sodipodi:namedview
     inkscape:window-height="712"
     inkscape:window-width="1024"
     inkscape:pageshadow="2"
     inkscape:pageopacity="0.0"
     guidetolerance="10.0"
     gridtolerance="10.0"
     objecttolerance="10.0"
     borderopacity="1.0"
     bordercolor="#666666"
     pagecolor="#ffffff"
     id="base"
     inkscape:zoom="2.1980348"
     inkscape:cx="75.874585"
     inkscape:cy="49.91479"
     inkscape:window-x="1020"
     inkscape:window-y="-4"
     inkscape:current-layer="svg2" />
  <defs
     id="defs4" />
  <g
     transform="matrix(0.4805977,0,0,2.8301887,143.89154,-2995.4194)"
     style="fill:#a67300;fill-opacity:1"
     id="g2828" />
  <g
     transform="matrix(0.1698112,0,0,0.9999999,170.56494,-1068.4669)"
     style="fill:#a67300;fill-opacity:1"
     id="g6010" />
  <path
     id="path2461"
     style="fill:#eedd22;fill-opacity:1;fill-rule:evenodd;stroke:none;stroke-width:1px;stroke-linecap:butt;stroke-linejoin:miter;stroke-opacity:1"
     d="M 0,-1.8169312e-005 L 105.99999,-1.8169312e-005 L 105.99999,29.999978 L 0,29.999978 L 0,-1.8169312e-005 z " />
  <path
     id="path2495"
     style="fill:#256fe3;fill-opacity:1;fill-rule:evenodd;stroke:none;stroke-width:1px;stroke-linecap:butt;stroke-linejoin:miter;stroke-opacity:1"
     d="M 10.996094,-1.8169312e-005 L 94.999987,-1.8169312e-005 L 94.999987,29.999978 L 10.996094,29.999978 L 10.996094,-1.8169312e-005 z " />
  <path
     id="path2529"
     style="fill:#ffffff;fill-opacity:1;fill-rule:evenodd;stroke:none;stroke-width:1px;stroke-linecap:butt;stroke-linejoin:miter;stroke-opacity:1"
     d="M 35.999999,-1.8169312e-005 L 69.999997,-1.8169312e-005 L 69.999997,29.999978 L 35.999999,29.999978 L 35.999999,-1.8169312e-005 z " />
  <path
     id="path2563"
     style="fill:#de0000;fill-opacity:1;fill-rule:evenodd;stroke:none;stroke-width:1px;stroke-linecap:butt;stroke-linejoin:miter;stroke-opacity:1"
     d="M 48.000001,-1.8169312e-005 L 56.999998,-1.8169312e-005 L 56.999998,29.999978 L 48.000001,29.999978 L 48.000001,-1.8169312e-005 z " />
  <g
     transform="translate(0,-1022.3621)"
     style="opacity:0.25;fill:#000000;fill-opacity:1"
     id="g3506">
    <path
       d="M 0,1051.3622 L 106,1051.3622 L 106,1052.3622 L 0,1052.3622 L 0,1051.3622 z "
       style="fill:#000000;fill-opacity:1;fill-rule:evenodd;stroke:none;stroke-width:1px;stroke-linecap:butt;stroke-linejoin:miter;stroke-opacity:1"
       id="path3508" />
    <path
       d="M 0,1049.3622 L 106,1049.3622 L 106,1050.3622 L 0,1050.3622 L 0,1049.3622 z "
       style="fill:#000000;fill-opacity:1;fill-rule:evenodd;stroke:none;stroke-width:1px;stroke-linecap:butt;stroke-linejoin:miter;stroke-opacity:1"
       id="path3510" />
    <path
       d="M 0,1047.3622 L 106,1047.3622 L 106,1048.3622 L 0,1048.3622 L 0,1047.3622 z "
       style="fill:#000000;fill-opacity:1;fill-rule:evenodd;stroke:none;stroke-width:1px;stroke-linecap:butt;stroke-linejoin:miter;stroke-opacity:1"
       id="path3512" />
    <path
       d="M 0,1045.3622 L 106,1045.3622 L 106,1046.3622 L 0,1046.3622 L 0,1045.3622 z "
       style="fill:#000000;fill-opacity:1;fill-rule:evenodd;stroke:none;stroke-width:1px;stroke-linecap:butt;stroke-linejoin:miter;stroke-opacity:1"
       id="path3514" />
    <path
       d="M 0,1043.3622 L 106,1043.3622 L 106,1044.3622 L 0,1044.3622 L 0,1043.3622 z "
       style="fill:#000000;fill-opacity:1;fill-rule:evenodd;stroke:none;stroke-width:1px;stroke-linecap:butt;stroke-linejoin:miter;stroke-opacity:1"
       id="path3516" />
    <path
       d="M 0,1041.3622 L 106,1041.3622 L 106,1042.3622 L 0,1042.3622 L 0,1041.3622 z "
       style="fill:#000000;fill-opacity:1;fill-rule:evenodd;stroke:none;stroke-width:1px;stroke-linecap:butt;stroke-linejoin:miter;stroke-opacity:1"
       id="path3518" />
    <path
       d="M 0,1039.3622 L 106,1039.3622 L 106,1040.3622 L 0,1040.3622 L 0,1039.3622 z "
       style="fill:#000000;fill-opacity:1;fill-rule:evenodd;stroke:none;stroke-width:1px;stroke-linecap:butt;stroke-linejoin:miter;stroke-opacity:1"
       id="path3520" />
    <path
       d="M 0,1037.3622 L 106,1037.3622 L 106,1038.3622 L 0,1038.3622 L 0,1037.3622 z "
       style="fill:#000000;fill-opacity:1;fill-rule:evenodd;stroke:none;stroke-width:1px;stroke-linecap:butt;stroke-linejoin:miter;stroke-opacity:1"
       id="path3522" />
    <path
       d="M 0,1035.3622 L 106,1035.3622 L 106,1036.3622 L 0,1036.3622 L 0,1035.3622 z "
       style="fill:#000000;fill-opacity:1;fill-rule:evenodd;stroke:none;stroke-width:1px;stroke-linecap:butt;stroke-linejoin:miter;stroke-opacity:1"
       id="path3524" />
    <path
       d="M 0,1033.3622 L 106,1033.3622 L 106,1034.3622 L 0,1034.3622 L 0,1033.3622 z "
       style="fill:#000000;fill-opacity:1;fill-rule:evenodd;stroke:none;stroke-width:1px;stroke-linecap:butt;stroke-linejoin:miter;stroke-opacity:1"
       id="path3526" />
    <path
       d="M 0,1031.3622 L 106,1031.3622 L 106,1032.3622 L 0,1032.3622 L 0,1031.3622 z "
       style="fill:#000000;fill-opacity:1;fill-rule:evenodd;stroke:none;stroke-width:1px;stroke-linecap:butt;stroke-linejoin:miter;stroke-opacity:1"
       id="path3528" />
    <path
       d="M 0,1029.3622 L 106,1029.3622 L 106,1030.3622 L 0,1030.3622 L 0,1029.3622 z "
       style="fill:#000000;fill-opacity:1;fill-rule:evenodd;stroke:none;stroke-width:1px;stroke-linecap:butt;stroke-linejoin:miter;stroke-opacity:1"
       id="path3530" />
    <path
       d="M 0,1027.3622 L 106,1027.3622 L 106,1028.3622 L 0,1028.3622 L 0,1027.3622 z "
       style="fill:#000000;fill-opacity:1;fill-rule:evenodd;stroke:none;stroke-width:1px;stroke-linecap:butt;stroke-linejoin:miter;stroke-opacity:1"
       id="path3532" />
    <path
       d="M 0,1025.3622 L 106,1025.3622 L 106,1026.3622 L 0,1026.3622 L 0,1025.3622 z "
       style="fill:#000000;fill-opacity:1;fill-rule:evenodd;stroke:none;stroke-width:1px;stroke-linecap:butt;stroke-linejoin:miter;stroke-opacity:1"
       id="path3534" />
    <path
       d="M 0,1023.3622 L 106,1023.3622 L 106,1024.3622 L 0,1024.3622 L 0,1023.3622 z "
       style="fill:#000000;fill-opacity:1;fill-rule:evenodd;stroke:none;stroke-width:1px;stroke-linecap:butt;stroke-linejoin:miter;stroke-opacity:1"
       id="path3536" />
  </g>
</svg>
